<?xml version="1.0" ?><svg enable-background="new 0 0 32 32" version="1.1" viewBox="0 0 32 32" xml:space="preserve" xmlns="http://www.w3.org/2000/svg" xmlns:xlink="http://www.w3.org/1999/xlink"><g id="Glyph"><g><g><path d="M16,0C7.164,0,0,7.164,0,16s7.164,16,16,16s16-7.164,16-16S24.836,0,16,0z M16,29.493     C8.547,29.493,2.506,23.453,2.506,16S8.547,2.506,16,2.506S29.494,8.547,29.494,16S23.453,29.493,16,29.493z" fill="#1A1718"/></g><g><path d="M16,3.006C8.836,3.006,3.006,8.836,3.006,16S8.836,28.993,16,28.993S28.994,23.164,28.994,16     S23.164,3.006,16,3.006z M19.488,15.999h-2.239v8.124h-3.357V16h-1.677v-2.8h1.677v-1.681c0-2.284,0.947-3.642,3.637-3.642h2.24     v2.8h-1.4c-1.047,0-1.117,0.392-1.117,1.121L17.249,13.2h2.536L19.488,15.999z" fill="#1A1718"/></g></g></g></svg>