<?xml version="1.0" ?><svg enable-background="new 0 0 32 32" version="1.1" viewBox="0 0 32 32" xml:space="preserve" xmlns="http://www.w3.org/2000/svg" xmlns:xlink="http://www.w3.org/1999/xlink"><g id="Glyph"><g><g><path d="M21.092,10.445H19.24c-0.256,0-0.463,0.207-0.463,0.463v1.852c0,0.256,0.207,0.463,0.463,0.463h1.852     c0.256,0,0.463-0.207,0.463-0.463v-1.852C21.555,10.652,21.348,10.445,21.092,10.445z" fill="#1A1718"/></g><g><path d="M20.614,16.133c0,2.462-2.061,4.46-4.603,4.46c-2.541,0-4.603-1.998-4.603-4.46     c0-0.442,0.068-0.868,0.191-1.271l-1.154-0.251v6.481c0,0.325,0.139,0.463,0.463,0.463h10.184c0.324,0,0.463-0.138,0.463-0.463     v-6.481l-1.132,0.251C20.547,15.265,20.614,15.691,20.614,16.133z" fill="#1A1718"/></g><g><ellipse cx="16.011" cy="15.972" fill="#1A1718" rx="2.974" ry="2.882"/></g><g><path d="M16,3.007C8.836,3.007,3.006,8.835,3.006,16S8.836,28.994,16,28.994S28.994,23.164,28.994,16     S23.164,3.007,16,3.007z M23.407,21.555c0,1.045-0.806,1.852-1.852,1.852h-11.11c-1.046,0-1.852-0.806-1.852-1.852v-11.11     c0-1.046,0.806-1.852,1.852-1.852h11.11c1.045,0,1.852,0.806,1.852,1.852V21.555z" fill="#1A1718"/></g><g><path d="M16,0C7.164,0,0,7.163,0,16s7.164,16,16,16s16-7.164,16-16S24.836,0,16,0z M16,29.494     C8.547,29.494,2.506,23.452,2.506,16S8.547,2.507,16,2.507S29.494,8.547,29.494,16S23.453,29.494,16,29.494z" fill="#1A1718"/></g></g></g></svg>