<?xml version="1.0" ?><svg enable-background="new 0 0 32 32" version="1.1" viewBox="0 0 32 32" xml:space="preserve" xmlns="http://www.w3.org/2000/svg" xmlns:xlink="http://www.w3.org/1999/xlink"><g id="Glyph"><g><g><path d="M16,3.006C8.836,3.006,3.007,8.835,3.007,16c0,7.164,5.829,12.993,12.993,12.993S28.994,23.164,28.994,16     C28.994,8.835,23.164,3.006,16,3.006z M12.043,21.927H8.937v-9.348h3.107V21.927z M10.49,11.303h-0.02     c-1.043,0-1.717-0.718-1.717-1.616c0-0.917,0.695-1.615,1.758-1.615c1.063,0,1.717,0.698,1.738,1.615     C12.248,10.585,11.573,11.303,10.49,11.303z M23.247,21.927L23.247,21.927l-3.107,0v-5.001c0-1.256-0.449-2.113-1.574-2.113     c-0.858,0-1.369,0.578-1.593,1.136c-0.082,0.2-0.102,0.479-0.102,0.757v5.221h-3.107c0,0,0.041-8.471,0-9.348h3.107v1.324     c0.412-0.637,1.151-1.544,2.8-1.544c2.044,0,3.577,1.336,3.577,4.208V21.927z" fill="#1A1718"/></g><g><path d="M16,0C7.164,0,0,7.163,0,16c0,8.836,7.164,16,16,16s16-7.164,16-16C32,7.163,24.836,0,16,0z M16,29.493     C8.547,29.493,2.507,23.452,2.507,16C2.507,8.547,8.547,2.506,16,2.506S29.494,8.547,29.494,16     C29.494,23.452,23.453,29.493,16,29.493z" fill="#1A1718"/></g></g></g></svg>