<?xml version="1.0" ?><svg enable-background="new 0 0 32 32" version="1.1" viewBox="0 0 32 32" xml:space="preserve" xmlns="http://www.w3.org/2000/svg" xmlns:xlink="http://www.w3.org/1999/xlink"><g id="Glyph"><g><g><path d="M16,3.006C8.836,3.006,3.006,8.836,3.006,16S8.836,28.993,16,28.993S28.994,23.164,28.994,16     S23.164,3.006,16,3.006z M23.907,11.182c-0.069,0.116-0.426,0.523-0.806,0.896c-0.644,0.64-0.679,0.71-0.679,1.245     c0,0.826-0.391,2.548-0.783,3.49c-0.726,1.769-2.279,3.596-3.833,4.516c-2.187,1.291-5.099,1.618-7.551,0.861     c-0.817-0.257-2.221-0.908-2.221-1.024c0-0.035,0.426-0.082,0.944-0.093c1.082-0.023,2.164-0.325,3.085-0.861l0.621-0.372     l-0.714-0.244c-1.013-0.349-1.922-1.152-2.152-1.909c-0.069-0.245-0.046-0.257,0.598-0.257l0.667-0.012l-0.564-0.268     c-0.668-0.338-1.278-0.907-1.577-1.49c-0.219-0.419-0.494-1.478-0.414-1.559c0.023-0.035,0.265,0.035,0.541,0.128     c0.794,0.291,0.898,0.221,0.437-0.268c-0.863-0.884-1.128-2.199-0.714-3.445L8.99,9.959l0.76,0.756     c1.554,1.525,3.384,2.432,5.479,2.7l0.576,0.07l-0.035-0.57c-0.103-1.478,0.806-2.828,2.244-3.351     c0.529-0.186,1.428-0.209,2.015-0.047c0.231,0.07,0.667,0.303,0.978,0.512l0.564,0.385l0.621-0.198     c0.346-0.104,0.806-0.279,1.013-0.396c0.196-0.105,0.369-0.163,0.369-0.128c0,0.198-0.426,0.873-0.783,1.245     c-0.484,0.523-0.346,0.57,0.633,0.221C24.011,10.96,24.023,10.96,23.907,11.182z" fill="#1A1718"/></g><g><path d="M16,0C7.164,0,0,7.164,0,16s7.164,16,16,16s16-7.164,16-16S24.836,0,16,0z M16,29.493     C8.547,29.493,2.506,23.452,2.506,16C2.506,8.547,8.547,2.506,16,2.506S29.494,8.547,29.494,16     C29.494,23.452,23.453,29.493,16,29.493z" fill="#1A1718"/></g></g></g></svg>